<?xml version="1.0" encoding="iso-8859-1"?>
<!-- Generator: Adobe Illustrator 21.0.0, SVG Export Plug-In . SVG Version: 6.00 Build 0)  -->
<svg version="1.1" id="Capa_1" xmlns="http://www.w3.org/2000/svg" xmlns:xlink="http://www.w3.org/1999/xlink" x="0px" y="0px"
	 viewBox="0 0 512 512" style="enable-background:new 0 0 512 512;" xml:space="preserve">
<path style="fill:#C48958;" d="M343.615,47.469v38.49c0-10.741,8.707-19.449,19.449-19.449c10.741,0,19.449,8.707,19.449,19.449
	v100.258c0.004-15.045,12.202-27.239,27.247-27.239h11.65V278.21c0,15.234-7.733,29.427-20.535,37.686l-6.257,4.037v70.206H253.714
	v-70.206l-6.258-4.037c-12.801-8.259-20.535-22.452-20.535-37.686v-64.506v-88.871c0-10.906,8.925-20.038,19.828-19.83
	c10.566,0.202,19.07,8.831,19.07,19.445v-38.49c0-10.741,8.707-19.449,19.449-19.449c10.741,0,19.449,8.707,19.449,19.449v-38.49
	c0-10.741,8.708-19.449,19.449-19.449C334.907,28.02,343.615,36.727,343.615,47.469z"/>
<g>
	<path style="fill:#B27A49;" d="M343.615,85.958c0-10.741,8.707-19.449,19.449-19.449v136.237h-19.449V85.958z"/>
	<path style="fill:#B27A49;" d="M265.819,85.958c0-10.741,8.707-19.449,19.449-19.449v136.237h-19.449V85.958z"/>
	<path style="fill:#B27A49;" d="M226.922,124.452c0-10.741,8.707-19.449,19.449-19.449v97.743h-19.449V124.452z"/>
	<path style="fill:#B27A49;" d="M304.717,47.469c0-10.741,8.707-19.449,19.449-19.449v174.727h-19.449V47.469z"/>
	<path style="fill:#B27A49;" d="M401.961,244.19v25.067h-35.79c-16.251,0-29.473,13.221-29.473,29.472v91.409h-25.067v-91.409
		c0-30.073,24.466-54.539,54.539-54.539h16.341v-57.974c0.003-12.334,8.204-22.747,19.449-26.101L401.961,244.19L401.961,244.19z"/>
</g>
<rect x="236.46" y="349.52" style="fill:#64E1DC;" width="175.42" height="81.24"/>
<rect x="324.17" y="349.52" style="fill:#00C8C8;" width="87.71" height="81.24"/>
<path style="fill:#F2D1A5;" d="M168.385,128.71v38.49c0-10.741-8.707-19.449-19.449-19.449s-19.449,8.707-19.449,19.449v100.258
	c-0.004-15.045-12.202-27.239-27.247-27.239H90.59V359.45c0,15.234,7.733,29.427,20.535,37.686l6.257,4.037v70.206h140.904v-70.206
	l6.258-4.037c12.801-8.259,20.535-22.452,20.535-37.686v-64.506v-88.871c0-10.906-8.925-20.038-19.828-19.83
	c-10.566,0.202-19.07,8.831-19.07,19.445v-38.49c0-10.741-8.707-19.449-19.449-19.449s-19.449,8.707-19.449,19.449v-38.49
	c0-10.741-8.708-19.449-19.449-19.449S168.385,117.968,168.385,128.71z"/>
<g>
	<path style="fill:#F2BB88;" d="M168.385,167.199c0-10.741-8.707-19.449-19.449-19.449v136.237h19.449V167.199z"/>
	<path style="fill:#F2BB88;" d="M246.181,167.199c0-10.741-8.707-19.449-19.449-19.449v136.237h19.449V167.199z"/>
	<path style="fill:#F2BB88;" d="M285.078,205.693c0-10.741-8.707-19.449-19.449-19.449v97.743h19.449V205.693z"/>
	<path style="fill:#F2BB88;" d="M207.283,128.71c0-10.741-8.707-19.449-19.449-19.449v174.727h19.449V128.71z"/>
</g>
<path style="fill:#F2D1A5;" d="M90.59,359.45c0,15.234,7.733,29.427,20.535,37.686l6.257,4.037v70.206h140.904V449.16H129.487
	V267.458c-0.004-15.045-12.202-27.239-27.247-27.239H90.59V359.45z"/>
<path style="fill:#F2BB88;" d="M110.039,241.357v84.074h19.449v-57.974C129.484,255.124,121.283,244.711,110.039,241.357z"/>
<rect x="100.13" y="430.76" style="fill:#FE8205;" width="175.42" height="81.24"/>
<rect x="187.83" y="430.76" style="fill:#FE6A16;" width="87.71" height="81.24"/>
<rect x="172.84" style="fill:#FFE733;" width="30" height="56.04"/>
<rect x="187.83" style="fill:#E8C917;" width="15" height="56.04"/>
<rect x="117.492" y="13.605" transform="matrix(0.9614 -0.275 0.275 0.9614 -6.3384 38.0418)" style="fill:#FFE733;" width="29.999" height="56.038"/>
<rect x="215.153" y="26.619" transform="matrix(0.275 -0.9614 0.9614 0.275 136.2829 263.9682)" style="fill:#E8C917;" width="56.038" height="29.999"/>
<g>
</g>
<g>
</g>
<g>
</g>
<g>
</g>
<g>
</g>
<g>
</g>
<g>
</g>
<g>
</g>
<g>
</g>
<g>
</g>
<g>
</g>
<g>
</g>
<g>
</g>
<g>
</g>
<g>
</g>
</svg>
