<svg id="Capa_1" enable-background="new 0 0 512 512" height="512" viewBox="0 0 512 512" width="512" xmlns="http://www.w3.org/2000/svg"><path d="m504.153 274.72-41.85 61.09c-1.69 2.47 2.23-1.07-59.18 49.51v111.71c0 8.27-6.72 14.97-15 14.97h-56.26l-10-16.333v-483.81l10-11.857h.01c18.64 0 33.75 15.08 33.75 33.68v30.47c0-9.3 3.78-17.72 9.89-23.81 6.1-6.1 14.54-9.87 23.86-9.87 18.64 0 33.75 15.08 33.75 33.68v155.47c14.56-16.58 39.98-20.61 59.31-7.38 20.471 14 25.731 42.03 11.72 62.48z" fill="#ffa81c"/><path d="m331.863 0v512h-123.74c-8.29 0-15-6.7-15-14.97v-133.77c-19.4-21.53-30-49.07-30-78.24v-191.1c0-18.572 15.083-33.68 33.75-33.68 18.64 0 33.75 15.08 33.75 33.68v-45.1c0-18.572 15.083-33.68 33.75-33.68 18.64 0 33.75 15.08 33.75 33.68v-15.14c0-18.524 15.038-33.68 33.74-33.68z" fill="#ffc473"/><g fill="#ffda2d"><path d="m71.606 50.394c-5.857-5.858-15.355-5.858-21.213 0s-5.858 15.355 0 21.213l21 21c5.857 5.858 15.355 5.859 21.213 0 5.858-5.858 5.858-15.355 0-21.213z"/><path d="m159.249 41.858-7.68-28.66c-2.145-8.003-10.366-12.75-18.372-10.606-8.002 2.144-12.75 10.369-10.606 18.371l7.68 28.66c2.144 8.002 10.369 12.751 18.372 10.606 8.002-2.144 12.75-10.369 10.606-18.371z"/><path d="m49.623 130.271-28.66-7.68c-7.998-2.145-16.228 2.604-18.372 10.606-2.144 8.002 2.604 16.227 10.606 18.371l28.66 7.68c8.005 2.145 16.228-2.607 18.372-10.606 2.144-8.002-2.604-16.227-10.606-18.371z"/></g><path d="m348.877 231.1v163.47c0 29.23-10.61 56.83-30 78.4v24.03c0 8.28-6.71 15-15 15h-123.75l-10-14.256v-346.744l10-14c18.64 0 33.75 15.11 33.75 33.75v15.17c0-18.64 15.11-33.75 33.75-33.75s33.75 15.11 33.75 33.75v45.18c0-18.63 15.11-33.75 33.75-33.75s33.75 15.12 33.75 33.75z" fill="#ce6a32"/><path d="m180.127 137v375h-56.25c-8.28 0-15-6.72-15-15v-1.93l-56.35-46.5c-2.29-1.9 1.03 2.55-44.68-64.32-14.01-20.48-8.75-48.57 11.72-62.6 19.32-13.25 44.74-9.23 59.31 7.4v-127.77c0-18.64 15.11-33.75 33.75-33.75s33.75 15.11 33.75 33.75v-30.53c0-18.64 15.11-33.75 33.75-33.75z" fill="#d98249"/></svg>