<svg height="511pt" viewBox="0 1 511.99845 511" width="511pt" xmlns="http://www.w3.org/2000/svg"><path d="m426.71875 167.835938c5.230469-7.875 7.046875-17.933594 4.140625-27.671876-5.289063-17.714843-24.449219-27.300781-42.035156-21.726562l-75.789063 24.03125c-16.890625 5.351562-34.714844-5.023438-38.429687-22.386719-1.566407-7.300781-2.972657-15.515625-4.132813-24.746093-4.15625-33.113282-24.769531-49.242188-43.957031-57.097657-15.078125-6.175781-30.824219 7.246094-27.203125 23.167969 4.125 18.140625 7.410156 41.113281 6.371094 59.785156-3.0625 55.019532-73.566406 84.03125-73.566406 84.03125l61.625 237.082032 253.804687-80.464844c17.277344-5.476563 26.859375-23.964844 21.394531-41.292969-2.484375-7.875-7.976562-13.453125-12.941406-17.101563-3.566406-2.621093-3.496094-7.917968.039062-10.582031 10.8125-8.15625 15.867188-22.550781 11.554688-36.222656-3.140625-9.964844-10.578125-17.371094-19.617188-20.824219-3.707031-1.414062-5.15625-6.019531-2.9375-9.3125 5.417969-8.035156 7.253907-18.382812 4.113282-28.347656-3.144532-9.96875-10.582032-17.375-19.625-20.828125-3.785156-1.445313-5.058594-6.109375-2.808594-9.492187zm0 0" fill="#ffe2d9"/><path d="m256 338.785156c-63.121094-34.269531-81.734375-107.828125-86.984375-155.949218-18.4375 14.792968-36.902344 22.386718-36.902344 22.386718l61.628907 237.082032 157.476562-49.925782c-26.617188-15.410156-61.308594-35.183594-95.21875-53.59375zm0 0" fill="#ffcfc2"/><path d="m143.140625 496.25 40.054687-12.699219c25.164063-7.976562 39.113282-34.898437 31.15625-60.128906l-70.605468-223.898437-85.617188 27.144531c-20.796875 6.59375-32.328125 28.84375-25.75 49.695312l61.195313 194.070313c6.578125 20.851562 28.769531 32.410156 49.566406 25.816406zm0 0" fill="#b2e59c"/><path d="m93.574219 470.429688c6.578125 20.855468 28.769531 32.414062 49.566406 25.820312l40.054687-12.699219c25.164063-7.976562 39.113282-34.898437 31.15625-60.128906l-16.761718-53.15625c-70.21875 9.847656-115.785156-5.914063-142.578125-22.125zm0 0" fill="#9ad880"/><path d="m172.761719 422.335938c4.210937 13.363281-3.175781 27.628906-16.507813 31.851562-13.328125 4.226562-27.550781-3.183594-31.765625-16.546875-4.214843-13.367187 3.171875-27.628906 16.503907-31.855469 13.328124-4.222656 27.554687 3.183594 31.769531 16.550782zm0 0" fill="#ffeb99"/><path d="m95.109375 10.570312 7.160156 13.125c7.140625 13.089844 17.875 23.851563 30.929688 31.011719l13.089843 7.179688c13.394532 7.34375 13.394532 26.632812 0 33.976562l-13.089843 7.179688c-13.054688 7.160156-23.789063 17.921875-30.929688 31.011719l-7.160156 13.125c-7.324219 13.429687-26.5625 13.429687-33.886719 0l-7.160156-13.125c-7.140625-13.089844-17.875-23.851563-30.929688-31.011719l-13.085937-7.179688c-13.394531-7.34375-13.394531-26.632812 0-33.980469l13.085937-7.175781c13.058594-7.160156 23.789063-17.921875 30.929688-31.011719l7.160156-13.125c7.324219-13.429687 26.5625-13.429687 33.886719 0zm0 0" fill="#ffeb99"/><path d="m467.378906 405.597656 5.21875 9.5625c5.203125 9.539063 13.027344 17.382813 22.539063 22.601563l9.539062 5.230469c9.761719 5.355468 9.761719 19.414062 0 24.765624l-9.539062 5.230469c-9.511719 5.21875-17.335938 13.0625-22.539063 22.601563l-5.21875 9.566406c-5.339844 9.789062-19.359375 9.789062-24.699218 0l-5.214844-9.566406c-5.203125-9.539063-13.027344-17.382813-22.542969-22.601563l-9.539063-5.230469c-9.761718-5.351562-9.761718-19.410156 0-24.765624l9.539063-5.230469c9.515625-5.21875 17.335937-13.0625 22.542969-22.601563l5.214844-9.5625c5.339843-9.789062 19.359374-9.789062 24.699218 0zm0 0" fill="#ffde55"/></svg>