<svg id="Capa_1" enable-background="new 0 0 512 512" height="512" viewBox="0 0 512 512" width="512" xmlns="http://www.w3.org/2000/svg"><g><g><path clip-rule="evenodd" d="m350.263 394.852c-15.673 0-28.54-12.869-28.54-28.573 0-15.562 12.612-28.318 28.115-28.573-15.673 0-28.54-12.841-28.54-28.544 0-15.732 12.839-28.573 28.54-28.573h-45.828c-6.065 0-8.531-1.757-5.753-8.901 11.932-30.755 24.232-78.915 4.62-108.792-7.709-11.735-14.341-18.283-26.074-26.985-10.571-7.852-17.175-8.702-20.179 11.197-5.356 35.206-20.009 133.481-83.04 133.481h-30.495v185.722h29.872c24.288 0 15.758-.425 27.179 14.797 9.239 12.359 34.094 20.834 50.589 20.891h.142 99.393c-13.717 0-24.997-11.253-24.997-25.029 0-13.748 11.251-25.001 24.997-25.001-15.673 0-28.54-12.841-28.54-28.573-.001-15.703 12.838-28.544 28.539-28.544z" fill="#ffdcd5" fill-rule="evenodd"/></g><g><path clip-rule="evenodd" d="m460 309.163c0-15.732-12.839-28.573-28.54-28.573h-81.623c-15.701 0-28.54 12.841-28.54 28.573 0 15.704 12.867 28.544 28.54 28.544h.425 81.198c15.673 0 28.54-12.841 28.54-28.544z" fill="#ffdcd5" fill-rule="evenodd"/></g><g><path clip-rule="evenodd" d="m349.838 337.707c-.028 0-.085 0-.142 0zm110.162 28.573c0-15.704-12.839-28.573-28.54-28.573h-81.198-.425c-.028 0-.085 0-.142 0 0 .028 0 .028 0 0-15.446.34-27.973 13.067-27.973 28.573 0 15.704 12.867 28.573 28.54 28.573h81.198c15.701-.001 28.54-12.87 28.54-28.573z" fill="#ffdcd5" fill-rule="evenodd"/></g><g><path clip-rule="evenodd" d="m460 423.397c0-15.704-12.839-28.544-28.54-28.544h-81.198c-15.701 0-28.54 12.841-28.54 28.544 0 15.732 12.867 28.573 28.54 28.573h59.205 21.993c15.701-.001 28.54-12.841 28.54-28.573z" fill="#ffdcd5" fill-rule="evenodd"/></g><g><path clip-rule="evenodd" d="m434.465 476.971c0-13.748-11.251-25.001-24.997-25.001h-59.205c-13.745 0-24.997 11.253-24.997 25.001 0 13.776 11.28 25.029 24.997 25.029h57.703 1.502c13.745 0 24.997-11.253 24.997-25.029z" fill="#ffdcd5" fill-rule="evenodd"/></g><g><path clip-rule="evenodd" d="m143.089 466.313v-185.723-4.79c0-12.954-10.628-23.584-23.608-23.584h-43.901c-12.98 0-23.58 10.63-23.58 23.584v195.303c0 12.982 10.628 23.584 23.58 23.584h43.901c12.98 0 23.608-10.63 23.608-23.584z" fill="#ff9eb1" fill-rule="evenodd"/></g><g><path d="m470 366.28c0-11.315-4.894-21.507-12.673-28.569 7.78-7.057 12.673-17.241 12.673-28.548 0-21.269-17.289-38.572-38.54-38.572h-122.099c10.962-29.815 23.691-79.945 1.873-113.182-8.052-12.259-15.237-19.71-28.469-29.523-3.986-2.96-13.317-9.894-22.814-5.98-9.107 3.754-11.847 14.645-13.214 23.701l-.076.498c-2.648 17.409-7.577 49.813-19.307 77.447-13.436 31.653-31.024 47.04-53.771 47.04h-20.901c-2.513-16.053-16.444-28.375-33.202-28.375h-43.9c-18.516-.001-33.58 15.065-33.58 33.583v52.751c0 5.523 4.477 10 10 10s10-4.477 10-10v-52.751c0-7.49 6.092-13.584 13.58-13.584h43.9c7.504 0 13.608 6.094 13.608 13.584v195.303c0 7.49-6.104 13.583-13.608 13.583h-43.9c-7.488 0-13.58-6.094-13.58-13.583v-52.752c0-5.523-4.477-10-10-10s-10 4.477-10 10v52.752c0 18.518 15.064 33.583 33.58 33.583h43.9c16.759 0 30.69-12.321 33.202-28.374 0 0 30.485-.005 32.631.153.136.239.275.485.404.713 1.245 2.205 3.126 5.538 6.415 9.921 11.507 15.38 39.448 24.9 58.737 24.9h157.096 1.502c19.298 0 34.997-15.714 34.997-35.029 0-5.8-1.426-11.269-3.933-16.091 16.887-4.094 29.469-19.341 29.469-37.482 0-11.307-4.894-21.491-12.673-28.548 7.779-7.062 12.673-17.254 12.673-28.569zm-20-57.117c0 10.226-8.317 18.544-18.54 18.544h-81.622c-10.223 0-18.54-8.319-18.54-18.544 0-10.241 8.317-18.572 18.54-18.572h81.622c10.223-.001 18.54 8.331 18.54 18.572zm-241.862 165.944c-2.516-3.354-3.895-5.796-5.003-7.759-6.235-11.046-11.355-11.06-28.253-11.036h-21.792v-165.722h20.495c31.215 0 55.5-19.926 72.181-59.225 12.713-29.952 17.888-63.975 20.668-82.254l.078-.509c.474-3.142.986-5.264 1.421-6.668.756.472 1.715 1.12 2.913 2.01 11.382 8.441 16.913 14.152 23.671 24.441 18.772 28.597 2.35 79.241-5.58 99.68-.95 2.443-3.84 9.877.528 16.262 4.284 6.263 12.007 6.263 14.545 6.263h12.062c-3.039 5.513-4.774 11.843-4.774 18.572 0 11.412 4.989 21.676 12.895 28.74-7.659 7.054-12.469 17.163-12.469 28.377 0 11.315 4.893 21.507 12.673 28.569-7.779 7.057-12.673 17.241-12.673 28.548 0 11.675 5.217 22.147 13.431 29.227-6.114 6.305-9.889 14.891-9.889 24.347 0 5.376 1.219 10.472 3.391 15.029h-67.787c-15.468.001-36.231-8.203-42.732-16.892zm201.33 16.893h-59.205c-8.27 0-14.997-6.742-14.997-15.029 0-8.272 6.728-15.001 14.997-15.001h59.205c8.27 0 14.997 6.729 14.997 15.001 0 8.287-6.728 15.029-14.997 15.029zm40.532-68.603c0 10.241-8.317 18.572-18.54 18.572h-21.992-59.205c-10.223 0-18.539-8.332-18.539-18.572 0-10.226 8.316-18.544 18.539-18.544h81.197c10.223 0 18.54 8.318 18.54 18.544zm-99.737-38.544c-10.223 0-18.539-8.332-18.539-18.573s8.316-18.573 18.539-18.573h81.197c10.223 0 18.54 8.332 18.54 18.573s-8.317 18.573-18.54 18.573z"/><path d="m258.75 307.986c-5.472.751-9.298 5.795-8.548 11.267 2.122 15.464-.857 29.001-8.615 39.147-9.449 12.357-25.733 20.112-48.401 23.049-5.477.709-9.342 5.725-8.632 11.202.653 5.041 4.953 8.716 9.904 8.716.428 0 .862-.027 1.298-.084 28.148-3.647 48.914-13.988 61.719-30.735 11.066-14.474 15.403-33.151 12.541-54.014-.75-5.471-5.787-9.298-11.266-8.548z"/></g><g><path d="m272.381 76.267c-5.522 0-10-4.477-10-10v-56.267c0-5.523 4.478-10 10-10s10 4.477 10 10v56.267c0 5.523-4.478 10-10 10z"/></g><g><path d="m350.141 99.568c-1.899 0-3.82-.54-5.521-1.669-4.602-3.054-5.855-9.26-2.802-13.862l31.005-46.714c3.054-4.602 9.262-5.855 13.862-2.802 4.602 3.054 5.855 9.26 2.802 13.862l-31.005 46.714c-1.925 2.9-5.103 4.471-8.341 4.471z"/></g><g><path d="m194.622 99.568c-3.237 0-6.413-1.569-8.339-4.467l-31.033-46.714c-3.056-4.601-1.804-10.807 2.796-13.863 4.601-3.057 10.806-1.805 13.863 2.796l31.034 46.714c3.056 4.601 1.804 10.807-2.796 13.863-1.703 1.13-3.625 1.671-5.525 1.671z"/></g><g><path d="m52 383.479c-5.523 0-10-4.449-10-9.972v-.057c0-5.523 4.477-10 10-10s10 4.477 10 10-4.477 10.029-10 10.029z"/></g></g></svg>