<svg id="Layer_1" enable-background="new 0 0 512.002 512.002" height="512" viewBox="0 0 512.002 512.002" width="512" xmlns="http://www.w3.org/2000/svg"><g><g clip-rule="evenodd" fill-rule="evenodd"><path d="m393.678 234.421c-4.157 15.514-58.977 35.262-83.88 66.807l-53.798 200.774 159.421-42.716-25.488-95.121 50.288-81.848c6.21-8.712 8.639-17.078 5.702-28.038l-17.5-65.311c-2.937-10.961-14.308-17.525-25.267-14.588-10.959 2.936-16.809 14.139-14.588 25.267 1.959 9.816 4.381 24.878 5.11 34.774z" fill="#ffdcd5"/><path d="m309.798 301.228 31.636-118.066 7.813-29.16c2.937-10.96-3.628-22.33-14.588-25.267-10.961-2.937-22.33 3.628-25.267 14.588l10.68-39.857c2.937-10.96-3.628-22.33-14.588-25.267s-22.33 3.628-25.267 14.588l5.34-19.928c2.937-10.96-3.628-22.33-14.588-25.267-10.961-2.937-22.33 3.627-25.267 14.588l-5.34 19.928c2.937-10.961-3.628-22.33-14.588-25.267s-22.33 3.627-25.267 14.588l-50.584 188.784c-16.207-10.094-29.624-18.422-31.599-25.793.73-9.896 3.152-24.958 5.11-34.776 2.221-11.127-3.628-22.33-14.587-25.267-10.959-2.936-22.331 3.628-25.267 14.588l-17.5 65.312c-2.937 10.96-.507 19.326 5.702 28.038l50.288 81.849-25.488 95.121 159.418 42.717z" fill="#f5c6af"/><path d="m362.08 260.216-20.646-77.054-31.636 118.066c13.069-16.556 34.38-29.862 52.282-41.012z" fill="#ffdcd5"/></g><g><path d="m455.582 251.69-17.5-65.311c-2.112-7.881-7.185-14.479-14.285-18.579-7.1-4.099-15.35-5.193-23.229-3.081-15.785 4.229-25.159 20.085-21.806 36.882 1.778 8.916 3.871 21.921 4.733 31.067-2.087 2.869-8.393 7.351-15.272 11.832l-16.436-61.34 7.12-26.571c4.372-16.314-5.344-33.143-21.658-37.515-3.609-.967-7.24-1.244-10.761-.914l3.244-12.107c4.371-16.313-5.345-33.142-21.659-37.514-3.969-1.064-7.967-1.293-11.81-.797.097-13.607-8.964-26.128-22.706-29.811-7.881-2.113-16.131-1.017-23.23 3.082-4.805 2.774-8.682 6.693-11.341 11.38-3.079-2.35-6.656-4.149-10.624-5.212-16.312-4.372-33.144 5.345-37.515 21.659l-47.068 175.659c-6.879-4.481-13.186-8.962-15.272-11.832.862-9.148 2.955-22.153 4.733-31.066 3.353-16.798-6.021-32.654-21.806-36.884-7.88-2.112-16.13-1.018-23.23 3.082-7.1 4.099-12.173 10.696-14.285 18.577l-17.5 65.313c-3.466 12.935-1.238 24.428 7.012 36.139l47.865 77.903-24.374 90.964c-.687 2.562-.327 5.292.999 7.588s3.51 3.973 6.072 4.659l159.419 42.716c.848.228 1.718.341 2.588.341s1.74-.113 2.588-.341l159.42-42.716c2.562-.687 4.746-2.362 6.072-4.659s1.686-5.026.999-7.588l-24.374-90.964 47.864-77.903c8.252-11.71 10.479-23.202 7.013-36.138zm-105.076 3.967c-7.187 4.522-14.793 9.458-22.128 14.865l13.056-48.724zm-101.577 234.097-140.101-37.54 22.899-85.461c.711-2.654.299-5.483-1.139-7.823l-50.289-81.849c-.119-.194-.245-.384-.377-.569-5.006-7.024-6.141-12.349-4.186-19.646l17.5-65.313c.729-2.72 2.493-5.005 4.966-6.433 2.473-1.427 5.334-1.813 8.054-1.084 6.224 1.667 8.442 8.278 7.369 13.651-2.003 10.041-4.509 25.588-5.277 35.996-.082 1.118.024 2.241.314 3.324 2.988 11.153 16.733 19.713 35.757 31.561l.214.133c2.688 1.674 6.012 1.977 8.958.813 2.947-1.163 5.167-3.653 5.987-6.713l50.584-188.785c1.517-5.663 7.356-9.031 13.02-7.517 5.662 1.517 9.034 7.358 7.517 13.02l-33.552 125.218c-1.43 5.335 1.736 10.818 7.071 12.248.867.232 1.738.343 2.595.343 4.415 0 8.456-2.947 9.653-7.414l33.552-125.218 5.34-19.929c1.517-5.662 7.357-9.033 13.019-7.517 5.662 1.518 9.034 7.358 7.518 13.02l-5.34 19.928-21.903 81.743c-1.43 5.335 1.736 10.818 7.071 12.248.867.232 1.738.343 2.595.343 4.415 0 8.456-2.947 9.653-7.414l21.903-81.743.008-.029c1.53-5.645 7.361-9.003 13.012-7.488 5.662 1.517 9.034 7.358 7.517 13.019l-10.68 39.856-22.873 85.362c-1.43 5.335 1.736 10.818 7.071 12.248.867.232 1.738.343 2.595.343 4.415 0 8.456-2.947 9.653-7.414l22.873-85.362.006-.023c1.526-5.648 7.357-9.011 13.013-7.494 5.662 1.517 9.034 7.358 7.517 13.02l-39.405 147.063c-.03.104-.058.208-.084.313zm183.149-213.242c-.132.186-.258.375-.377.569l-50.288 81.848c-1.438 2.34-1.85 5.169-1.139 7.823l22.899 85.461-133.031 35.647 48.763-181.985c12.151-14.555 31.52-26.619 48.675-37.305 19.023-11.848 32.768-20.409 35.756-31.561.29-1.082.396-2.206.314-3.323-.767-10.406-3.272-25.954-5.276-35.998-1.072-5.373 1.146-11.982 7.37-13.65 2.721-.729 5.581-.344 8.053 1.083 2.473 1.428 4.237 3.712 4.966 6.434l17.5 65.311c1.955 7.297.821 12.622-4.185 19.646z"/><path d="m134.462 37.697c1.953 1.953 4.512 2.929 7.071 2.929s5.119-.977 7.071-2.929c3.905-3.905 3.905-10.237 0-14.142l-20.626-20.626c-3.905-3.905-10.237-3.905-14.142 0s-3.905 10.237 0 14.142z"/><path d="m82.844 113.563h31.125c5.523 0 10-4.477 10-10s-4.477-10-10-10h-31.125c-5.523 0-10 4.477-10 10s4.477 10 10 10z"/><path d="m370.469 40.625c2.559 0 5.119-.976 7.071-2.929l20.625-20.625c3.905-3.905 3.905-10.237 0-14.143s-10.237-3.905-14.143 0l-20.625 20.625c-3.905 3.905-3.905 10.237 0 14.143 1.954 1.953 4.513 2.929 7.072 2.929z"/><path d="m388.031 103.563c0 5.523 4.477 10 10 10h31.125c5.523 0 10-4.477 10-10s-4.477-10-10-10h-31.125c-5.523 0-10 4.477-10 10z"/><path d="m246.672 208.006h-.008c-5.523 0-9.996 4.477-9.996 10s4.481 10 10.004 10 10-4.477 10-10-4.477-10-10-10z"/></g></g></svg>